<?xml version="1.0" encoding="utf-8"?>
<!-- Generator: Adobe Illustrator 25.1.0, SVG Export Plug-In . SVG Version: 6.00 Build 0)  -->
<svg version="1.1" id="Layer_1_xA0_Image_1_" xmlns="http://www.w3.org/2000/svg" xmlns:xlink="http://www.w3.org/1999/xlink"
	 x="0px" y="0px" viewBox="0 0 259.4 259.4" style="enable-background:new 0 0 259.4 259.4;" xml:space="preserve">
<g>
	<g>
		<path d="M129.24,211.99c8.66-8.89,16.49-16.94,24.74-25.41c1.76,1.44,4.39,3.59,7.09,5.8c-6.42,5.45-12.66,10.37-18.43,15.79
			c-3.72,3.5-7.09,7.51-10.02,11.72c-4.84,6.95-3.4,9.7,4.86,10.44c0.65,0.06,1.29,0.19,1.91,0.28c0.26,8.78-9.98,16.69-18.05,14.09
			c-4.93-1.59-8.1-6.51-6.63-11.86c1.53-5.54,4.05-10.81,6.31-16.66c-7.65-4.87-15.71-10.03-23.83-15.11
			c-0.59-0.37-1.66-0.46-2.29-0.18c-12.28,5.52-21.61-0.11-29.98-8.24c-3.23-3.14-5.53-7.24-8.25-10.9
			c0.25-0.48,0.51-0.96,0.76-1.43c4.21,0,8.43-0.23,12.6,0.17c1,0.1,2.11,2.18,2.63,3.55c2.94,7.69,8.47,11.64,15.16,10.16
			c-22.2-19.47-40.23-41.03-36-73.02c2.68-20.31,18.14-43.98,35.77-56.07c2.78,6.8,5.53,13.47,8.16,20.18
			c0.2,0.51-0.33,1.62-0.85,2.04c-11.33,9.2-14.43,22.34-16.78,35.68c-3.59,20.33,4.48,45.83,19.09,61.13
			c2.73-4.65,5.41-9.22,8.37-14.28c-4.65-5.08-9.95-10.89-15.19-16.62c4.73-5.94,11.06-7.55,19.05-5
			c-1.12,5.38-4.36,11.36,3.36,16.21c4.74-10.43,9.43-20.73,14.67-32.26c-8.85,0-16.12,0-24.83,0c5.07-27.17-0.96-51.51-14.83-74.49
			c-5.15,1.15-10.62,2.38-16.2,3.63c-2.01-4.15-1.13-6.66,2.72-9.21c7.07-4.67,13.65-10.08,20.48-15.12
			c5.64-4.16,7.81-3.91,9.68,2.66c6.89,24.13,13.32,48.39,19.91,72.6c0.48,1.75,0.82,3.55,1.36,5.95c11.48,0,22.87,0,35.44,0
			c-6.81,10.11-7.6,20.46-6.57,31.01c1.74,17.84,10.19,31.72,25.19,41.6c3.39,2.23,6.42,2.09,8.34-1.67
			c0.56-1.09-0.24-2.97-0.65-4.43c-0.45-1.64-1.16-3.2-1.75-4.8c1.34-0.45,2.66-1.24,4.01-1.29c4.76-0.16,9.53-0.06,14.31-0.06
			c-0.45,8.31-11.15,22.52-18.02,22.56c-5.07,0.03-10.89-2.18-15.07-5.19c-7.35-5.29-13.7-11.96-21.17-18.69
			c-10.8,3.33-22.84,4.38-34.49-1.46c-4.22,4.85-8.3,9.56-13.25,15.25C111.15,198.03,119.74,204.65,129.24,211.99z M145.69,170.72
			c-4.35-7.45-8.27-14.17-12.19-20.88c-5.28,6.55-10.13,12.57-15.23,18.89C127.08,174.33,135.93,173.76,145.69,170.72z"/>
		<path d="M177.46,181.54c-3.72-2.83-8.57-4.73-9.86-8.02c-1.14-2.9,1.57-7.4,2.81-11.11c8.27-24.85,10.1-49.79,1.14-74.89
			c-8.15-22.83-24.99-33.4-49.12-30.86c-6.85,0.72-6.85,0.72-8.86-6.55c6.7-2.86,11.37-7.8,13.94-14.66
			c0.52-1.38,1.05-2.95,0.88-4.34c-0.18-1.49-1.19-2.89-1.83-4.32c-1.24,0.6-2.49,1.18-3.71,1.81c-0.56,0.29-1.06,0.71-1.57,1.05
			c-3.69-4.25-3.18-12.57,0.85-16.26c4.98-4.55,12.51-4.32,17.09,0.54c5.36,5.67,6.01,14.27,1.42,20.66
			c-2.41,3.35-5.06,6.51-7.78,9.99c7.32,2.67,14.25,4.85,20.9,7.68c14.45,6.16,27.34,14.65,36.61,27.62
			c14.97,20.92,16.32,43.7,8.44,67.55C194.52,160.43,188.01,172.04,177.46,181.54z"/>
		<path d="M174.8,60.56c-5.18-2.11-6.9-4.58-4.03-9.68c3.18-5.66,6.76-10.55,12.64-13.58c7.09-3.65,14.71-1.25,16.73,6.4
			c1.1,4.16,0.37,9.1-0.7,13.4c-0.46,1.85-3.85,4.04-5.97,4.11c-2.05,0.07-4.86-1.94-6.14-3.84c-3.38-5.01-6.1-5.35-9.72-0.46
			C176.73,58.11,175.8,59.26,174.8,60.56z"/>
		<path d="M136.77,116.33c1.92-11.86,6.23-22.5,12-32.62c1.15-2.02,2.54-3.9,3.63-5.95c1.96-3.7,4.63-3.97,7.63-1.53
			c2.87,2.33,4.19,4.75,0.94,8.25c-7.64,8.24-13.79,17.48-16.53,28.57C143.33,117.54,140.41,116.92,136.77,116.33z"/>
	</g>
</g>
</svg>
